<svg xmlns="http://www.w3.org/2000/svg" xmlns:xlink="http://www.w3.org/1999/xlink" data-name="Layer 1" preserveAspectRatio="xMidYMid meet" version="1.0" viewBox="-0.8 -0.8 398.6 412.8" zoomAndPan="magnify" style="fill: rgb(0, 0, 0);" original_string_length="23959"><defs><linearGradient xmlns:xlink="http://www.w3.org/1999/xlink" gradientUnits="userSpaceOnUse" id="__id166_sh5yl46t3" x1="-12.96" x2="403.13" xlink:actuate="onLoad" xlink:show="other" xlink:type="simple" y1="205.67" y2="205.67"><stop offset="0" style="stop-color: rgb(110, 40, 248);"/><stop offset="1" style="stop-color: rgb(142, 119, 248);"/></linearGradient></defs><path d="M355.87,10.59a2,2,0,1,0,2,2A2,2,0,0,0,355.87,10.59Zm0,21.7A1.73,1.73,0,1,0,357.6,34,1.72,1.72,0,0,0,355.87,32.29Zm0,21.69a1.49,1.49,0,1,0,1.49,1.49A1.49,1.49,0,0,0,355.87,54Zm0,21.58a1.37,1.37,0,1,0,1.37,1.37A1.37,1.37,0,0,0,355.87,75.56Zm0,21.63a1.19,1.19,0,1,0,1.19,1.19A1.19,1.19,0,0,0,355.87,97.19Zm0,21.64a1,1,0,1,0,1,1A1,1,0,0,0,355.87,118.83Zm0,21.58a.89.89,0,1,0,.89.89A.89.89,0,0,0,355.87,140.41Zm0,21.51a.84.84,0,0,0-.83.84.83.83,0,0,0,1.66,0A.84.84,0,0,0,355.87,161.92Zm0,21.52a.78.78,0,1,0,.77.77A.77.77,0,0,0,355.87,183.44Zm0,21.46a.77.77,0,1,0,.77.77A.76.76,0,0,0,355.87,204.9Zm0,21.45a.78.78,0,1,0,.77.78A.77.77,0,0,0,355.87,226.35Zm0,21.46a.78.78,0,1,0,.77.77A.77.77,0,0,0,355.87,247.81Zm0,21.46a.76.76,0,0,0-.77.77.77.77,0,1,0,1.54,0A.76.76,0,0,0,355.87,269.27Zm0,23.12a.89.89,0,1,0-.89-.89A.89.89,0,0,0,355.87,292.39Zm0,21.52a1,1,0,1,0-.95-1A.95.95,0,0,0,355.87,313.91Zm0,21.58a1.08,1.08,0,1,0-1.07-1.08A1.08,1.08,0,0,0,355.87,335.49Zm0,21.63a1.25,1.25,0,1,0-1.25-1.25A1.25,1.25,0,0,0,355.87,357.12Zm0,21.58a1.37,1.37,0,1,0-1.37-1.37A1.37,1.37,0,0,0,355.87,378.7Zm0,18.48a1.61,1.61,0,1,0,1.61,1.61A1.61,1.61,0,0,0,355.87,397.18ZM334.41,10.06a2.5,2.5,0,1,0,2.5,2.49A2.49,2.49,0,0,0,334.41,10.06Zm0,21.75a2.2,2.2,0,1,0,2.21,2.2A2.21,2.21,0,0,0,334.41,31.81Zm0,21.64a2,2,0,1,0,2,2A2,2,0,0,0,334.41,53.45Zm0,21.63a1.85,1.85,0,1,0,1.85,1.85A1.84,1.84,0,0,0,334.41,75.08Zm0,21.64a1.67,1.67,0,0,0,0,3.33,1.67,1.67,0,1,0,0-3.33Zm0,21.63a1.49,1.49,0,1,0,1.49,1.49A1.49,1.49,0,0,0,334.41,118.35Zm0,21.52a1.43,1.43,0,1,0,1.43,1.43A1.42,1.42,0,0,0,334.41,139.87Zm0,21.58a1.31,1.31,0,1,0,1.31,1.31A1.31,1.31,0,0,0,334.41,161.45Zm0,21.51a1.25,1.25,0,1,0,1.25,1.25A1.25,1.25,0,0,0,334.41,183Zm0,21.46a1.25,1.25,0,1,0,1.25,1.25A1.25,1.25,0,0,0,334.41,204.42Zm0,21.46a1.25,1.25,0,1,0,1.25,1.25A1.25,1.25,0,0,0,334.41,225.88Zm0,21.45a1.25,1.25,0,1,0,1.25,1.25A1.25,1.25,0,0,0,334.41,247.33Zm0,21.46a1.25,1.25,0,1,0,1.25,1.25A1.25,1.25,0,0,0,334.41,268.79Zm0,24.08a1.37,1.37,0,1,0-1.36-1.37A1.37,1.37,0,0,0,334.41,292.87Zm0,21.57a1.49,1.49,0,1,0-1.48-1.48A1.48,1.48,0,0,0,334.41,314.44Zm0,21.52a1.55,1.55,0,1,0-1.54-1.55A1.54,1.54,0,0,0,334.41,336Zm0,21.64a1.73,1.73,0,1,0-1.72-1.73A1.73,1.73,0,0,0,334.41,357.6Zm0,21.63a1.91,1.91,0,1,0-1.9-1.9A1.9,1.9,0,0,0,334.41,379.23Zm0,17.47a2.09,2.09,0,1,0,2.09,2.09A2.09,2.09,0,0,0,334.41,396.7ZM395.87,10.59a2,2,0,1,0,2,2A2,2,0,0,0,395.87,10.59Zm0,21.7A1.73,1.73,0,1,0,397.6,34,1.72,1.72,0,0,0,395.87,32.29Zm0,21.69a1.49,1.49,0,1,0,1.49,1.49A1.49,1.49,0,0,0,395.87,54Zm0,21.58a1.37,1.37,0,1,0,1.37,1.37A1.37,1.37,0,0,0,395.87,75.56Zm0,21.63a1.19,1.19,0,1,0,1.19,1.19A1.19,1.19,0,0,0,395.87,97.19Zm0,21.64a1,1,0,1,0,1,1A1,1,0,0,0,395.87,118.83Zm0,21.58a.89.89,0,1,0,.89.89A.89.89,0,0,0,395.87,140.41Zm0,21.51a.84.84,0,0,0-.83.84.83.83,0,0,0,1.66,0A.84.84,0,0,0,395.87,161.92Zm0,21.52a.78.78,0,1,0,.77.77A.77.77,0,0,0,395.87,183.44Zm0,21.46a.77.77,0,1,0,.77.77A.76.76,0,0,0,395.87,204.9Zm0,21.45a.78.78,0,1,0,.77.78A.77.77,0,0,0,395.87,226.35Zm0,21.46a.78.78,0,1,0,.77.77A.77.77,0,0,0,395.87,247.81Zm0,21.46a.76.76,0,0,0-.77.77.77.77,0,1,0,1.54,0A.76.76,0,0,0,395.87,269.27Zm0,23.12a.89.89,0,1,0-.89-.89A.89.89,0,0,0,395.87,292.39Zm0,21.52a1,1,0,1,0-.95-1A.95.95,0,0,0,395.87,313.91Zm0,21.58a1.08,1.08,0,1,0-1.07-1.08A1.08,1.08,0,0,0,395.87,335.49Zm0,21.63a1.25,1.25,0,1,0-1.25-1.25A1.25,1.25,0,0,0,395.87,357.12Zm0,21.58a1.37,1.37,0,1,0-1.37-1.37A1.37,1.37,0,0,0,395.87,378.7Zm0,18.48a1.61,1.61,0,1,0,1.61,1.61A1.61,1.61,0,0,0,395.87,397.18ZM374.41,10.06a2.5,2.5,0,1,0,2.5,2.49A2.49,2.49,0,0,0,374.41,10.06Zm0,21.75a2.2,2.2,0,1,0,2.21,2.2A2.21,2.21,0,0,0,374.41,31.81Zm0,21.64a2,2,0,1,0,2,2A2,2,0,0,0,374.41,53.45Zm0,21.63a1.85,1.85,0,1,0,1.85,1.85A1.84,1.84,0,0,0,374.41,75.08Zm0,21.64a1.67,1.67,0,0,0,0,3.33,1.67,1.67,0,1,0,0-3.33Zm0,21.63a1.49,1.49,0,1,0,1.49,1.49A1.49,1.49,0,0,0,374.41,118.35Zm0,21.52a1.43,1.43,0,1,0,1.43,1.43A1.42,1.42,0,0,0,374.41,139.87Zm0,21.58a1.31,1.31,0,1,0,1.31,1.31A1.31,1.31,0,0,0,374.41,161.45Zm0,21.51a1.25,1.25,0,1,0,1.25,1.25A1.25,1.25,0,0,0,374.41,183Zm0,21.46a1.25,1.25,0,1,0,1.25,1.25A1.25,1.25,0,0,0,374.41,204.42Zm0,21.46a1.25,1.25,0,1,0,1.25,1.25A1.25,1.25,0,0,0,374.41,225.88Zm0,21.45a1.25,1.25,0,1,0,1.25,1.25A1.25,1.25,0,0,0,374.41,247.33Zm0,21.46a1.25,1.25,0,1,0,1.25,1.25A1.25,1.25,0,0,0,374.41,268.79Zm0,24.08a1.37,1.37,0,1,0-1.36-1.37A1.37,1.37,0,0,0,374.41,292.87Zm0,21.57a1.49,1.49,0,1,0-1.48-1.48A1.48,1.48,0,0,0,374.41,314.44Zm0,21.52a1.55,1.55,0,1,0-1.54-1.55A1.54,1.54,0,0,0,374.41,336Zm0,21.64a1.73,1.73,0,1,0-1.72-1.73A1.73,1.73,0,0,0,374.41,357.6Zm0,21.63a1.91,1.91,0,1,0-1.9-1.9A1.9,1.9,0,0,0,374.41,379.23Zm0,17.47a2.09,2.09,0,1,0,2.09,2.09A2.09,2.09,0,0,0,374.41,396.7ZM313,9.58a3,3,0,1,0,3,3A3,3,0,0,0,313,9.58Zm0,21.75A2.68,2.68,0,1,0,315.63,34,2.68,2.68,0,0,0,313,31.33ZM313,53a2.5,2.5,0,1,0,2.5,2.5A2.5,2.5,0,0,0,313,53Zm0,21.64a2.32,2.32,0,1,0,2.32,2.32A2.31,2.31,0,0,0,313,74.61Zm0,21.63a2.15,2.15,0,1,0,2.14,2.14A2.14,2.14,0,0,0,313,96.24Zm0,21.58a2,2,0,1,0,2,2A2,2,0,0,0,313,117.82Zm0,21.51a2,2,0,1,0,2,2A2,2,0,0,0,313,139.33Zm0,21.58a1.85,1.85,0,1,0,1.84,1.85A1.85,1.85,0,0,0,313,160.91Zm0,21.52a1.79,1.79,0,1,0,1.78,1.78A1.79,1.79,0,0,0,313,182.43Zm0,25a1.73,1.73,0,1,0-1.73-1.73A1.73,1.73,0,0,0,313,207.4Zm0,21.45a1.73,1.73,0,1,0-1.73-1.72A1.72,1.72,0,0,0,313,228.85Zm0,21.46a1.73,1.73,0,1,0-1.73-1.73A1.72,1.72,0,0,0,313,250.31Zm0,21.52a1.79,1.79,0,1,0-1.79-1.79A1.79,1.79,0,0,0,313,271.83Zm0,21.57a1.91,1.91,0,1,0-1.91-1.9A1.9,1.9,0,0,0,313,293.4Zm0,21.52a2,2,0,1,0-2-2A2,2,0,0,0,313,314.92Zm0,21.58a2.09,2.09,0,1,0-2.09-2.09A2.09,2.09,0,0,0,313,336.5Zm0,21.57a2.2,2.2,0,1,0-2.2-2.2A2.2,2.2,0,0,0,313,358.07Zm0,21.64a2.38,2.38,0,1,0-2.38-2.38A2.39,2.39,0,0,0,313,379.71Zm0,16.52a2.56,2.56,0,1,0,2.55,2.56A2.55,2.55,0,0,0,313,396.23ZM291.5,9.1A3.46,3.46,0,1,0,295,12.55,3.45,3.45,0,0,0,291.5,9.1Zm0,21.7A3.22,3.22,0,1,0,294.71,34,3.21,3.21,0,0,0,291.5,30.8Zm0,21.63a3,3,0,1,0,3,3A3,3,0,0,0,291.5,52.43Zm0,21.64a2.86,2.86,0,1,0,2.85,2.86A2.86,2.86,0,0,0,291.5,74.07Zm0,21.64a2.68,2.68,0,1,0,2.68,2.67A2.67,2.67,0,0,0,291.5,95.71Zm0,21.57a2.56,2.56,0,1,0,2.56,2.56A2.56,2.56,0,0,0,291.5,117.28Zm0,21.52a2.5,2.5,0,1,0,2.5,2.5A2.5,2.5,0,0,0,291.5,138.8Zm0,21.58a2.38,2.38,0,1,0,2.38,2.38A2.37,2.37,0,0,0,291.5,160.38Zm0,21.51a2.32,2.32,0,1,0,2.32,2.32A2.32,2.32,0,0,0,291.5,181.89Zm0,26a2.26,2.26,0,1,0-2.26-2.26A2.26,2.26,0,0,0,291.5,207.93Zm0,21.46a2.26,2.26,0,1,0-2.26-2.26A2.26,2.26,0,0,0,291.5,229.39Zm0,16.87a2.32,2.32,0,1,0,2.32,2.32A2.32,2.32,0,0,0,291.5,246.26Zm0,21.46a2.32,2.32,0,1,0,2.32,2.32A2.32,2.32,0,0,0,291.5,267.72Zm0,26.22a2.44,2.44,0,1,0-2.44-2.44A2.44,2.44,0,0,0,291.5,293.94Zm0,21.52A2.5,2.5,0,1,0,289,313,2.5,2.5,0,0,0,291.5,315.46Zm0,21.57a2.62,2.62,0,1,0-2.62-2.62A2.62,2.62,0,0,0,291.5,337Zm0,21.58a2.74,2.74,0,1,0-2.74-2.74A2.74,2.74,0,0,0,291.5,358.61Zm0,21.63a2.92,2.92,0,1,0-2.92-2.91A2.91,2.91,0,0,0,291.5,380.24Zm0,15.45a3.1,3.1,0,1,0,3.09,3.1A3.09,3.09,0,0,0,291.5,395.69ZM270,8.57a4,4,0,1,0,4,4A4,4,0,0,0,270,8.57Zm0,21.63A3.81,3.81,0,1,0,273.85,34,3.82,3.82,0,0,0,270,30.2Zm0,21.64a3.63,3.63,0,1,0,3.63,3.63A3.63,3.63,0,0,0,270,51.84Zm0,21.69a3.4,3.4,0,1,0,3.39,3.4A3.4,3.4,0,0,0,270,73.53Zm0,21.64a3.22,3.22,0,1,0,3.21,3.21A3.21,3.21,0,0,0,270,95.17Zm0,21.52a3.15,3.15,0,1,0,3.16,3.15A3.15,3.15,0,0,0,270,116.69Zm0,27.58a3,3,0,1,0-3-3A3,3,0,0,0,270,144.27Zm0,21.46a3,3,0,1,0-3-3A3,3,0,0,0,270,165.73Zm0,15.63a2.86,2.86,0,1,0,2.86,2.85A2.85,2.85,0,0,0,270,181.36Zm0,21.51a2.8,2.8,0,1,0,2.8,2.8A2.81,2.81,0,0,0,270,202.87Zm0,21.46a2.8,2.8,0,1,0,2.8,2.8A2.8,2.8,0,0,0,270,224.33Zm0,21.46a2.8,2.8,0,1,0,2.8,2.79A2.8,2.8,0,0,0,270,245.79ZM270,273a2.92,2.92,0,1,0-2.91-2.92A2.92,2.92,0,0,0,270,273Zm0,21.51a3,3,0,1,0-3-3A3,3,0,0,0,270,294.47ZM270,316a3,3,0,1,0-3-3A3,3,0,0,0,270,316Zm0,21.64a3.22,3.22,0,1,0-3.21-3.22A3.21,3.21,0,0,0,270,337.63Zm0,21.51a3.27,3.27,0,1,0-3.27-3.27A3.26,3.26,0,0,0,270,359.14Zm0,21.64a3.45,3.45,0,1,0-3.45-3.45A3.45,3.45,0,0,0,270,380.78Zm0,14.38a3.63,3.63,0,1,0,3.63,3.63A3.63,3.63,0,0,0,270,395.16ZM248.58,8a4.59,4.59,0,1,0,4.59,4.58A4.58,4.58,0,0,0,248.58,8Zm0,21.64A4.4,4.4,0,1,0,253,34,4.4,4.4,0,0,0,248.58,29.61Zm0,21.69a4.17,4.17,0,1,0,4.17,4.17A4.17,4.17,0,0,0,248.58,51.3Zm0,21.64a4,4,0,1,0,4,4A4,4,0,0,0,248.58,72.94Zm0,21.64a3.81,3.81,0,1,0,3.81,3.8A3.8,3.8,0,0,0,248.58,94.58Zm0,21.57a3.69,3.69,0,1,0,3.69,3.69A3.69,3.69,0,0,0,248.58,116.15Zm0,21.58a3.57,3.57,0,1,0,3.57,3.57A3.57,3.57,0,0,0,248.58,137.73Zm0,28.48a3.46,3.46,0,1,0-3.45-3.45A3.45,3.45,0,0,0,248.58,166.21Zm0,21.45a3.45,3.45,0,1,0-3.45-3.45A3.44,3.44,0,0,0,248.58,187.66Zm0,14.62a3.39,3.39,0,1,0,3.4,3.39A3.39,3.39,0,0,0,248.58,202.28Zm0,21.46a3.39,3.39,0,1,0,3.4,3.39A3.39,3.39,0,0,0,248.58,223.74Zm0,21.45a3.4,3.4,0,1,0,3.4,3.39A3.39,3.39,0,0,0,248.58,245.19Zm0,28.3a3.45,3.45,0,1,0-3.45-3.45A3.44,3.44,0,0,0,248.58,273.49Zm0,21.52a3.51,3.51,0,1,0-3.51-3.51A3.51,3.51,0,0,0,248.58,295Zm0,21.58A3.63,3.63,0,1,0,245,313,3.63,3.63,0,0,0,248.58,316.59Zm0,21.51a3.69,3.69,0,1,0-3.68-3.69A3.69,3.69,0,0,0,248.58,338.1Zm0,21.64a3.87,3.87,0,1,0-3.86-3.87A3.87,3.87,0,0,0,248.58,359.74Zm0,21.63a4,4,0,1,0-4-4A4,4,0,0,0,248.58,381.37Zm0,13.19a4.23,4.23,0,1,0,4.23,4.23A4.22,4.22,0,0,0,248.58,394.56ZM227.13,7.32a5.24,5.24,0,1,0,5.23,5.23A5.24,5.24,0,0,0,227.13,7.32Zm0,21.69a5,5,0,1,0,5,5A5,5,0,0,0,227.13,29Zm0,21.64A4.82,4.82,0,1,0,232,55.47,4.82,4.82,0,0,0,227.13,50.65Zm0,21.69a4.59,4.59,0,1,0,4.58,4.59A4.59,4.59,0,0,0,227.13,72.34Zm0,21.58a4.47,4.47,0,1,0,4.46,4.46A4.47,4.47,0,0,0,227.13,93.92Zm0,21.64a4.28,4.28,0,1,0,4.28,4.28A4.28,4.28,0,0,0,227.13,115.56Zm0,21.57a4.17,4.17,0,1,0,4.16,4.17A4.17,4.17,0,0,0,227.13,137.13Zm0,21.52a4.11,4.11,0,1,0,4.1,4.11A4.11,4.11,0,0,0,227.13,158.65Zm0,21.52a4,4,0,1,0,4,4A4,4,0,0,0,227.13,180.17Zm0,29.49a4,4,0,1,0-4-4A4,4,0,0,0,227.13,209.66Zm0,21.45a4,4,0,1,0-4-4A4,4,0,0,0,227.13,231.11Zm0,21.46a4,4,0,1,0-4-4A4,4,0,0,0,227.13,252.57Zm0,21.52a4,4,0,1,0-4-4A4,4,0,0,0,227.13,274.09Zm0,21.57A4.17,4.17,0,1,0,223,291.5,4.16,4.16,0,0,0,227.13,295.66Zm0,21.52A4.23,4.23,0,1,0,222.9,313,4.22,4.22,0,0,0,227.13,317.18Zm0,21.58a4.35,4.35,0,1,0-4.35-4.35A4.34,4.34,0,0,0,227.13,338.76Zm0,21.63a4.52,4.52,0,1,0-4.52-4.52A4.52,4.52,0,0,0,227.13,360.39Zm0,21.58a4.64,4.64,0,1,0-4.64-4.64A4.64,4.64,0,0,0,227.13,382Zm0,12a4.82,4.82,0,1,0,4.82,4.82A4.82,4.82,0,0,0,227.13,394ZM205.67,6.6a6,6,0,1,0,6,6A6,6,0,0,0,205.67,6.6Zm0,21.76A5.65,5.65,0,1,0,211.32,34,5.65,5.65,0,0,0,205.67,28.36Zm0,21.64a5.47,5.47,0,1,0,5.47,5.47A5.47,5.47,0,0,0,205.67,50Zm0,21.69a5.24,5.24,0,1,0,5.24,5.24A5.24,5.24,0,0,0,205.67,71.69Zm0,21.64a5.06,5.06,0,1,0,5.06,5A5.06,5.06,0,0,0,205.67,93.33Zm0,21.57a4.94,4.94,0,1,0,4.94,4.94A4.94,4.94,0,0,0,205.67,114.9Zm0,21.58a4.82,4.82,0,1,0,4.82,4.82A4.82,4.82,0,0,0,205.67,136.48Zm0,21.52a4.76,4.76,0,1,0,4.76,4.76A4.76,4.76,0,0,0,205.67,158Zm0,21.51a4.7,4.7,0,1,0,4.7,4.7A4.7,4.7,0,0,0,205.67,179.51Zm0,21.52a4.64,4.64,0,1,0,4.64,4.64A4.64,4.64,0,0,0,205.67,201Zm0,21.46a4.64,4.64,0,1,0,4.64,4.64A4.64,4.64,0,0,0,205.67,222.49Zm0,21.45a4.65,4.65,0,1,0,4.64,4.64A4.64,4.64,0,0,0,205.67,243.94Zm0,30.8A4.7,4.7,0,1,0,201,270,4.69,4.69,0,0,0,205.67,274.74Zm0,21.52a4.76,4.76,0,1,0-4.76-4.76A4.76,4.76,0,0,0,205.67,296.26Zm0,21.58a4.88,4.88,0,1,0-4.88-4.88A4.89,4.89,0,0,0,205.67,317.84Zm0,21.57a5,5,0,1,0-5-5A5,5,0,0,0,205.67,339.41Zm0,21.58a5.12,5.12,0,1,0-5.12-5.12A5.12,5.12,0,0,0,205.67,361Zm0,21.63a5.3,5.3,0,1,0-5.3-5.29A5.3,5.3,0,0,0,205.67,382.62Zm0,10.69a5.48,5.48,0,1,0,5.47,5.48A5.47,5.47,0,0,0,205.67,393.31ZM184.21,6a6.61,6.61,0,1,0,6.61,6.6A6.6,6.6,0,0,0,184.21,6Zm0,21.64A6.43,6.43,0,1,0,190.64,34,6.41,6.41,0,0,0,184.21,27.59Zm0,21.69a6.19,6.19,0,1,0,6.19,6.19A6.19,6.19,0,0,0,184.21,49.28Zm0,21.7a6,6,0,1,0,5.95,6A6,6,0,0,0,184.21,71Zm0,21.57A5.83,5.83,0,1,0,190,98.38,5.83,5.83,0,0,0,184.21,92.55Zm0,21.64a5.65,5.65,0,1,0,5.65,5.65A5.65,5.65,0,0,0,184.21,114.19Zm0,32.58a5.48,5.48,0,1,0-5.47-5.47A5.47,5.47,0,0,0,184.21,146.77Zm0,21.46a5.48,5.48,0,1,0-5.47-5.47A5.47,5.47,0,0,0,184.21,168.23Zm0,21.34a5.36,5.36,0,1,0-5.35-5.36A5.36,5.36,0,0,0,184.21,189.57Zm0,21.45a5.35,5.35,0,1,0-5.35-5.35A5.35,5.35,0,0,0,184.21,211Zm0,10.81a5.3,5.3,0,1,0,5.3,5.3A5.29,5.29,0,0,0,184.21,221.83Zm0,32.11a5.36,5.36,0,1,0-5.35-5.36A5.36,5.36,0,0,0,184.21,253.94Zm0,21.52A5.42,5.42,0,1,0,178.8,270,5.42,5.42,0,0,0,184.21,275.46Zm0,21.51a5.47,5.47,0,1,0-5.47-5.47A5.47,5.47,0,0,0,184.21,297Zm0,21.52a5.54,5.54,0,1,0-5.53-5.53A5.54,5.54,0,0,0,184.21,318.49Zm0,21.64a5.72,5.72,0,1,0-5.71-5.72A5.71,5.71,0,0,0,184.21,340.13Zm0,21.57a5.83,5.83,0,1,0-5.83-5.83A5.83,5.83,0,0,0,184.21,361.7Zm0,21.64a6,6,0,1,0-6-6A6,6,0,0,0,184.21,383.34Zm0,9.2a6.25,6.25,0,1,0,6.25,6.25A6.24,6.24,0,0,0,184.21,392.54ZM162.76,5.18a7.38,7.38,0,1,0,7.37,7.37A7.37,7.37,0,0,0,162.76,5.18Zm0,21.69A7.14,7.14,0,1,0,169.9,34,7.14,7.14,0,0,0,162.76,26.87Zm0,21.7a6.9,6.9,0,1,0,6.9,6.9A6.9,6.9,0,0,0,162.76,48.57Zm0,21.63a6.73,6.73,0,1,0,6.72,6.73A6.73,6.73,0,0,0,162.76,70.2Zm0,21.64a6.55,6.55,0,1,0,6.54,6.54A6.54,6.54,0,0,0,162.76,91.84Zm0,21.63a6.37,6.37,0,1,0,6.36,6.37A6.37,6.37,0,0,0,162.76,113.47Zm0,21.58A6.25,6.25,0,1,0,169,141.3,6.25,6.25,0,0,0,162.76,135.05Zm0,21.52a6.19,6.19,0,1,0,6.18,6.19A6.19,6.19,0,0,0,162.76,156.57Zm0,21.51a6.13,6.13,0,1,0,6.12,6.13A6.13,6.13,0,0,0,162.76,178.08Zm0,21.52a6.07,6.07,0,1,0,6.06,6.07A6.07,6.07,0,0,0,162.76,199.6Zm0,21.46a6.07,6.07,0,1,0,6.06,6.07A6.07,6.07,0,0,0,162.76,221.06Zm0,33.65a6.13,6.13,0,1,0-6.13-6.13A6.12,6.12,0,0,0,162.76,254.71Zm0,21.46a6.13,6.13,0,1,0-6.13-6.13A6.12,6.12,0,0,0,162.76,276.17Zm0,21.52a6.19,6.19,0,1,0-6.19-6.19A6.19,6.19,0,0,0,162.76,297.69Zm0,21.57a6.31,6.31,0,1,0-6.31-6.3A6.3,6.3,0,0,0,162.76,319.26Zm0,21.58a6.43,6.43,0,1,0-6.43-6.43A6.43,6.43,0,0,0,162.76,340.84Zm0,21.58a6.55,6.55,0,1,0-6.55-6.55A6.54,6.54,0,0,0,162.76,362.42Zm0,21.69a6.78,6.78,0,1,0-6.79-6.78A6.79,6.79,0,0,0,162.76,384.11Zm0,7.71a7,7,0,1,0,7,7A7,7,0,0,0,162.76,391.82ZM141.3,4.4a8.16,8.16,0,1,0,8.15,8.15A8.15,8.15,0,0,0,141.3,4.4Zm0,21.64a8,8,0,1,0,8,8A8,8,0,0,0,141.3,26Zm0,21.69A7.74,7.74,0,1,0,149,55.47,7.75,7.75,0,0,0,141.3,47.73Zm0,21.7a7.5,7.5,0,1,0,7.5,7.5A7.5,7.5,0,0,0,141.3,69.43Zm0,21.58a7.38,7.38,0,1,0,7.38,7.37A7.37,7.37,0,0,0,141.3,91Zm0,21.69a7.14,7.14,0,1,0,7.14,7.14A7.14,7.14,0,0,0,141.3,112.7Zm0,21.58a7,7,0,1,0,7,7A7,7,0,0,0,141.3,134.28Zm0,35.38a6.91,6.91,0,1,0-6.9-6.9A6.9,6.9,0,0,0,141.3,169.66Zm0,21.45a6.9,6.9,0,1,0-6.9-6.9A6.9,6.9,0,0,0,141.3,191.11Zm0,7.72a6.84,6.84,0,1,0,6.84,6.84A6.84,6.84,0,0,0,141.3,198.83Zm0,21.45a6.85,6.85,0,1,0,6.84,6.85A6.85,6.85,0,0,0,141.3,220.28Zm0,21.46a6.85,6.85,0,1,0,6.84,6.84A6.84,6.84,0,0,0,141.3,241.74Zm0,35.2a6.9,6.9,0,1,0-6.9-6.9A6.9,6.9,0,0,0,141.3,276.94Zm0,21.52a7,7,0,1,0-7-7A7,7,0,0,0,141.3,298.46Zm0,21.58a7.08,7.08,0,1,0-7.08-7.08A7.08,7.08,0,0,0,141.3,320Zm0,21.57a7.2,7.2,0,1,0-7.2-7.2A7.2,7.2,0,0,0,141.3,341.61Zm0,21.64a7.38,7.38,0,1,0-7.38-7.38A7.38,7.38,0,0,0,141.3,363.25Zm0,21.64a7.56,7.56,0,1,0-7.56-7.56A7.56,7.56,0,0,0,141.3,384.89Zm0,6.16a7.74,7.74,0,1,0,7.73,7.74A7.74,7.74,0,0,0,141.3,391.05ZM119.84,3.51a9,9,0,1,0,9,9A9,9,0,0,0,119.84,3.51Zm0,21.7a8.81,8.81,0,1,0,8.81,8.8A8.81,8.81,0,0,0,119.84,25.21Zm0,21.69a8.57,8.57,0,1,0,8.57,8.57A8.57,8.57,0,0,0,119.84,46.9Zm0,21.7a8.33,8.33,0,1,0,8.33,8.33A8.33,8.33,0,0,0,119.84,68.6Zm0,21.63A8.16,8.16,0,1,0,128,98.38,8.15,8.15,0,0,0,119.84,90.23Zm0,21.58a8,8,0,1,0,8,8A8,8,0,0,0,119.84,111.81Zm0,21.57a7.92,7.92,0,1,0,7.91,7.92A7.92,7.92,0,0,0,119.84,133.38Zm0,37.11a7.74,7.74,0,1,0-7.73-7.73A7.74,7.74,0,0,0,119.84,170.49Zm0,21.46a7.74,7.74,0,1,0-7.73-7.74A7.75,7.75,0,0,0,119.84,192Zm0,6a7.68,7.68,0,1,0,7.68,7.68A7.67,7.67,0,0,0,119.84,198Zm0,21.46a7.68,7.68,0,1,0,7.68,7.68A7.67,7.67,0,0,0,119.84,219.45Zm0,21.46a7.68,7.68,0,1,0,7.68,7.67A7.67,7.67,0,0,0,119.84,240.91Zm0,36.87a7.74,7.74,0,1,0-7.73-7.74A7.75,7.75,0,0,0,119.84,277.78Zm0,21.45a7.74,7.74,0,1,0-7.73-7.73A7.74,7.74,0,0,0,119.84,299.23Zm0,21.64a7.92,7.92,0,1,0-7.91-7.91A7.91,7.91,0,0,0,119.84,320.87Zm0,21.64a8.1,8.1,0,1,0-8.09-8.1A8.1,8.1,0,0,0,119.84,342.51Zm0,21.51a8.15,8.15,0,1,0-8.15-8.15A8.15,8.15,0,0,0,119.84,364Zm0,21.76a8.45,8.45,0,1,0-8.45-8.45A8.45,8.45,0,0,0,119.84,385.78Zm0,4.44a8.57,8.57,0,1,0,8.57,8.57A8.57,8.57,0,0,0,119.84,390.22ZM98.38,2.56a10,10,0,1,0,10,10A10,10,0,0,0,98.38,2.56Zm0,21.75a9.7,9.7,0,1,0,9.7,9.7A9.7,9.7,0,0,0,98.38,24.31Zm0,21.7a9.46,9.46,0,1,0,9.46,9.46A9.46,9.46,0,0,0,98.38,46Zm0,21.69a9.23,9.23,0,1,0,9.23,9.23A9.22,9.22,0,0,0,98.38,67.7Zm0,21.64a9,9,0,1,0,9.05,9A9,9,0,0,0,98.38,89.34Zm0,21.64a8.87,8.87,0,1,0,8.87,8.86A8.86,8.86,0,0,0,98.38,111Zm0,21.57a8.75,8.75,0,1,0,8.75,8.75A8.74,8.74,0,0,0,98.38,132.55Zm0,21.58a8.63,8.63,0,1,0,8.63,8.63A8.62,8.62,0,0,0,98.38,154.13Zm0,38.65a8.57,8.57,0,1,0-8.56-8.57A8.57,8.57,0,0,0,98.38,192.78Zm0,21.46a8.57,8.57,0,1,0-8.56-8.57A8.57,8.57,0,0,0,98.38,214.24Zm0,21.46a8.57,8.57,0,1,0-8.56-8.57A8.57,8.57,0,0,0,98.38,235.7Zm0,21.45a8.57,8.57,0,1,0-8.56-8.57A8.56,8.56,0,0,0,98.38,257.15Zm0,21.46A8.57,8.57,0,1,0,89.82,270,8.57,8.57,0,0,0,98.38,278.61Zm0,21.52a8.63,8.63,0,1,0-8.62-8.63A8.63,8.63,0,0,0,98.38,300.13Zm0,21.63a8.81,8.81,0,1,0-8.8-8.8A8.8,8.8,0,0,0,98.38,321.76Zm0,21.58a8.93,8.93,0,1,0-8.92-8.93A8.93,8.93,0,0,0,98.38,343.34Zm0,21.63a9.1,9.1,0,1,0-9.1-9.1A9.1,9.1,0,0,0,98.38,365Zm0,21.64a9.28,9.28,0,1,0-9.28-9.28A9.29,9.29,0,0,0,98.38,386.61Zm0,2.66a9.52,9.52,0,1,0,9.52,9.52A9.52,9.52,0,0,0,98.38,389.27ZM77.33,23.4A10.63,10.63,0,1,1,66.69,36.81a11.55,11.55,0,0,1-7.23,8,11.32,11.32,0,0,1,7.24,9.32,10.35,10.35,0,1,1,0,2.58,11.28,11.28,0,0,1-8,9.56,11.09,11.09,0,0,1-.8,21.46,10.84,10.84,0,0,1-1.1,21.36,10.8,10.8,0,0,1-1.18,21.52,10.65,10.65,0,1,1-10.31,13.53,11.68,11.68,0,0,1-6.86,7.9,11.56,11.56,0,0,1,6.86,8.17,10.54,10.54,0,1,1,0,5,11.54,11.54,0,0,1-7.26,8.3,11.39,11.39,0,0,1,7.24,8.78,10.42,10.42,0,1,1,0,3.76A11.39,11.39,0,0,1,37.71,195a11.33,11.33,0,0,1,7.51,9.11,10.41,10.41,0,1,1,0,3.18,11.32,11.32,0,0,1-7.61,9.14,11.31,11.31,0,0,1,7.64,9.43,10.36,10.36,0,1,1,0,2.59,11.3,11.3,0,0,1-7.54,9.4,11.42,11.42,0,0,1,7.54,8.88,10.42,10.42,0,1,1,0,3.77,11.38,11.38,0,0,1-7.44,8.84,11.41,11.41,0,0,1,7.39,8.44,10.53,10.53,0,1,1,0,4.59A11.42,11.42,0,0,1,38,280.71a11.52,11.52,0,0,1,7.23,8.19,10.59,10.59,0,1,1,0,5.2,11.57,11.57,0,0,1-6.83,8.07,11.64,11.64,0,0,1,6.86,7.89A10.63,10.63,0,1,1,55.58,323.6a10.8,10.8,0,0,1,1.47,21.48,10.91,10.91,0,0,1,1,21.4A11.13,11.13,0,0,1,58.76,388a11.3,11.3,0,0,1,7.91,9.24,10.42,10.42,0,1,1,0,3.17,11.3,11.3,0,0,1-21.36,3.42A12.32,12.32,0,0,1,23.38,405a12.52,12.52,0,1,1-17.26-17,12.47,12.47,0,0,1,0-21.46,12.47,12.47,0,0,1,0-21.46,12.46,12.46,0,0,1,0-21.45,12.47,12.47,0,0,1,0-21.46,12.46,12.46,0,0,1,.06-21.49,12.4,12.4,0,0,1,.19-21.49,12.28,12.28,0,0,1,.12-21.39,12.28,12.28,0,0,1,0-21.46A12.28,12.28,0,0,1,6.37,195a12.4,12.4,0,0,1-.19-21.49A12.46,12.46,0,0,1,6.12,152a12.47,12.47,0,0,1,0-21.46,12.47,12.47,0,0,1,0-21.46,12.47,12.47,0,0,1,0-21.46,12.46,12.46,0,0,1,0-21.45,12.47,12.47,0,0,1,0-21.46,12.47,12.47,0,0,1,0-21.46A12.52,12.52,0,1,1,23.28,6.12a12.46,12.46,0,0,1,21.86.75A11.75,11.75,0,0,1,66.69,9,10.86,10.86,0,1,1,77.33,23.4ZM54.18,109.14a10.81,10.81,0,0,1-8.91-7.06,11.88,11.88,0,0,1-6.32,7.1,11.76,11.76,0,0,1,6.29,7.27A10.76,10.76,0,0,1,54.18,109.14ZM45.27,337.91A11.77,11.77,0,0,1,39.14,345a12,12,0,0,1,6.16,6.84,10.92,10.92,0,0,1,8.58-6.8A10.76,10.76,0,0,1,45.27,337.91Zm7.6,28.57a11,11,0,0,1-7.57-6.61,12,12,0,0,1-5.85,6.66,12.18,12.18,0,0,1,5.81,6.27A11.13,11.13,0,0,1,52.87,366.48Zm-24.3,0a11.89,11.89,0,0,1-5-4.78A12.62,12.62,0,0,1,19,366.6a12.62,12.62,0,0,1,4.53,4.73A12.17,12.17,0,0,1,28.57,366.53Zm-4.78-48.07a12.56,12.56,0,0,1-4.8,5.23,12.54,12.54,0,0,1,4.7,5,11.8,11.8,0,0,1,5.57-5.15A11.62,11.62,0,0,1,23.79,318.46ZM19,345.14a12.64,12.64,0,0,1,4.6,4.86,12,12,0,0,1,5.29-5,11.8,11.8,0,0,1-5.19-4.94A12.61,12.61,0,0,1,19,345.14Zm10.63-43a11.51,11.51,0,0,1-5.76-5.29A12.59,12.59,0,0,1,19,302.23a12.53,12.53,0,0,1,4.8,5.22A11.59,11.59,0,0,1,29.62,302.17Zm.4-21.46a11.4,11.4,0,0,1-6.13-5.48,12.55,12.55,0,0,1-5,5.51,12.57,12.57,0,0,1,4.93,5.38A11.52,11.52,0,0,1,30,280.71Zm.2-21.4a11.4,11.4,0,0,1-6.4-5.66,12.42,12.42,0,0,1-5.08,5.6,12.47,12.47,0,0,1,5.15,5.6A11.4,11.4,0,0,1,30.22,259.31Zm.1-21.49a11.3,11.3,0,0,1-6.46-5.69,12.37,12.37,0,0,1-5.25,5.73,12.27,12.27,0,0,1,5.21,5.66A11.39,11.39,0,0,1,30.32,237.82Zm.1-21.42a11.34,11.34,0,0,1-6.56-5.72,12.39,12.39,0,0,1-5.25,5.72,12.34,12.34,0,0,1,5.25,5.72A11.34,11.34,0,0,1,30.42,216.4ZM30.32,195a11.33,11.33,0,0,1-6.43-5.57A12.44,12.44,0,0,1,18.74,195a12.39,12.39,0,0,1,5.12,5.66A11.28,11.28,0,0,1,30.32,195ZM30,173.55a11.5,11.5,0,0,1-6.16-5.42,12.6,12.6,0,0,1-4.93,5.39,12.47,12.47,0,0,1,5,5.5A11.38,11.38,0,0,1,30,173.55Zm-.4-21.46a11.66,11.66,0,0,1-5.83-5.29A12.56,12.56,0,0,1,19,152a12.54,12.54,0,0,1,4.87,5.35A11.47,11.47,0,0,1,29.62,152.09Zm-.3-21.45a11.82,11.82,0,0,1-5.6-5.17,12.5,12.5,0,0,1-4.73,5.1,12.5,12.5,0,0,1,4.8,5.23A11.64,11.64,0,0,1,29.32,130.64Zm-6-90.2A12.52,12.52,0,0,1,19,44.74a12.6,12.6,0,0,1,4.43,4.54,12.32,12.32,0,0,1,4.41-4.4A12.5,12.5,0,0,1,23.28,40.44ZM19,66.2A12.57,12.57,0,0,1,23.55,71a12.14,12.14,0,0,1,4.77-4.66,12.26,12.26,0,0,1-4.9-4.68A12.55,12.55,0,0,1,19,66.2Zm0,21.45a12.62,12.62,0,0,1,4.66,5,11.84,11.84,0,0,1,5.11-4.87,12.09,12.09,0,0,1-5.21-4.9A12.5,12.5,0,0,1,19,87.65Zm0,21.46a12.6,12.6,0,0,1,4.73,5.11,11.76,11.76,0,0,1,5.35-5,11.89,11.89,0,0,1-5.42-5.05A12.49,12.49,0,0,1,19,109.11ZM53.07,87.78a11.15,11.15,0,0,1-7.83-6.48,12.1,12.1,0,0,1-6,6.46,11.86,11.86,0,0,1,6,6.93A10.87,10.87,0,0,1,53.07,87.78Zm-.8-21.46a11.31,11.31,0,0,1-7-5.91,12.34,12.34,0,0,1-5.58,5.92,12.12,12.12,0,0,1,5.54,6.22A11.12,11.12,0,0,1,52.27,66.32Zm-.8-21.46a11.54,11.54,0,0,1-6.19-5.41,12.57,12.57,0,0,1-5.08,5.43,12.28,12.28,0,0,1,5.08,5.65A11.36,11.36,0,0,1,51.47,44.86Zm-11-21.58a12.61,12.61,0,0,1,4.84,5.29,11.62,11.62,0,0,1,5.49-5.15,11.9,11.9,0,0,1-5.63-5.18A12.41,12.41,0,0,1,40.44,23.28ZM19,23.28a12.52,12.52,0,0,1,4.29,4.3,12.46,12.46,0,0,1,4.3-4.3A12.52,12.52,0,0,1,23.28,19,12.58,12.58,0,0,1,19,23.28ZM28.2,387.92a12.14,12.14,0,0,1-4.68-4.59A12.62,12.62,0,0,1,19,388.06a12.48,12.48,0,0,1,4.39,4.48A12.51,12.51,0,0,1,28.2,387.92Zm24,0a11.14,11.14,0,0,1-6.91-6.1,12.13,12.13,0,0,1-5.44,6.06,12.39,12.39,0,0,1,5.49,5.86A11.37,11.37,0,0,1,52.17,388Zm-13.4-64.38a11.85,11.85,0,0,1,6.5,7.34,10.77,10.77,0,0,1,10.09-7.32,10.61,10.61,0,0,1-10.09-7.75A11.64,11.64,0,0,1,38.77,323.58ZM55.36,130.66a10.79,10.79,0,0,1-10.12-7.42,11.79,11.79,0,0,1-6.53,7.4,11.65,11.65,0,0,1,6.56,7.76A10.6,10.6,0,0,1,55.36,130.66ZM76.52,23.4a10.85,10.85,0,0,1-9.83-7.25,11.8,11.8,0,0,1-6.53,7.27,11.55,11.55,0,0,1,6.53,7.8A10.61,10.61,0,0,1,76.52,23.4Zm.41,43.41A10.12,10.12,0,1,0,87,76.93,10.12,10.12,0,0,0,76.93,66.81Zm0,21.58a10,10,0,1,0,10,10A10,10,0,0,0,76.93,88.39Zm0,21.63a9.82,9.82,0,1,0,9.81,9.82A9.82,9.82,0,0,0,76.93,110Zm0,21.58a9.7,9.7,0,1,0,9.69,9.7A9.7,9.7,0,0,0,76.93,131.6Zm0,21.64a9.52,9.52,0,1,0,9.52,9.52A9.52,9.52,0,0,0,76.93,153.24Zm0,21.51a9.46,9.46,0,1,0,9.46,9.46A9.46,9.46,0,0,0,76.93,174.75Zm0,21.46a9.46,9.46,0,1,0,9.46,9.46A9.45,9.45,0,0,0,76.93,196.21Zm0,21.46a9.46,9.46,0,1,0,9.46,9.46A9.45,9.45,0,0,0,76.93,217.67Zm0,21.45a9.47,9.47,0,1,0,9.46,9.46A9.46,9.46,0,0,0,76.93,239.12Zm0,40.44A9.52,9.52,0,1,0,67.41,270,9.52,9.52,0,0,0,76.93,279.56Zm0,21.52a9.58,9.58,0,1,0-9.58-9.58A9.58,9.58,0,0,0,76.93,301.08Zm0,21.63A9.76,9.76,0,1,0,67.17,313,9.74,9.74,0,0,0,76.93,322.71Zm0,21.58a9.88,9.88,0,1,0-9.88-9.88A9.87,9.87,0,0,0,76.93,344.29Zm0,21.58a10,10,0,1,0-10-10A10,10,0,0,0,76.93,365.87Zm0,21.69a10.24,10.24,0,1,0-10.24-10.23A10.23,10.23,0,0,0,76.93,387.56Z" style="fill: url(&quot;#__id166_sh5yl46t3&quot;);"/></svg>