<svg xmlns="http://www.w3.org/2000/svg" version="1.1" viewBox="0 0 494.68 494.68" style="fill: rgb(0, 0, 0);" original_string_length="1220">
 <g id="__id164_s9b1it0ko">
  <g id="__id165_s9b1it0ko"><path d="m247.34-0.0039062c136.61 0 247.34 110.73 247.34 247.34 0 136.6-110.73 247.34-247.34 247.34-136.6 0-247.34-110.74-247.34-247.34 0-136.61 110.74-247.34 247.34-247.34" style="fill: rgb(142, 119, 248);"/></g>
  <g id="__id166_s9b1it0ko"><path d="m247.11 387.84c-121.47-64.4-145.82-148.89-145.82-148.89-17.192-40.12 1.4-86.58 41.52-103.77s86.58 1.39 103.77 41.52l0.77 1.39 0.77-1.39c17.19-40.13 63.65-58.71 103.77-41.52s58.71 63.65 41.52 103.77c0 0-24.35 84.49-145.83 148.89h-0.47" style="fill: rgb(255, 255, 255);"/></g>
  <g id="__id167_s9b1it0ko"><path d="m247.34 494.68c-136.6 0-247.34-110.74-247.34-247.34 0-136.61 110.74-247.34 247.34-247.34v178.09l-0.76-1.39c-12.84-29.98-42.02-47.93-72.68-47.93-10.38 0-20.95 2.06-31.09 6.41-40.12 17.19-58.712 63.65-41.52 103.77 0 0 24.35 84.49 145.82 148.89h0.23v106.84" style="fill: rgb(244, 72, 211);"/></g>
  <g id="__id168_s9b1it0ko"><path d="m247.34 387.84h-0.23c-121.47-64.4-145.82-148.89-145.82-148.89-17.192-40.12 1.4-86.58 41.52-103.77 10.14-4.35 20.71-6.41 31.09-6.41 30.66 0 59.84 17.95 72.68 47.93l0.76 1.39v209.75" style="fill: rgb(245, 245, 245);"/></g>
 </g>
</svg>