<svg xmlns="http://www.w3.org/2000/svg" xmlns:xlink="http://www.w3.org/1999/xlink" preserveAspectRatio="xMidYMid meet" version="1.0" viewBox="31.3 4.1 44.6 86.0" zoomAndPan="magnify" style="fill: rgb(0, 0, 0);" original_string_length="14362"><g id="__id262_slrh93vazf"><path d="M70.6,53.2c0.2,0,0.5,0,0.6,0.1c0.2,0.1,0.3,0.3,0.3,0.5c0.8,2.2,1.3,4.6,1.5,6.9c-0.9-0.8-1.6-1.8-2.5-2.7 c-0.9-0.9-2-1.6-3.2-1.5c0,0,0.1-1.4,0.1-1.5c0.1-0.4,0-0.8,0.4-1C68.5,53.4,69.7,53.3,70.6,53.2z" style="fill: rgb(209, 160, 124);"/></g><g id="__id263_slrh93vazf"><path d="M43.3,79.6c-0.1,2.2,0,4.4,0.3,6.6c-1.2,0.1-2.3,0.2-3.5,0.4c0-0.3-0.1-3-0.2-4.3c-0.1-0.7-0.1-1.1-0.1-1.1 c0-0.3-0.2-0.8-0.1-1.1c0.1-0.3,1-0.5,1.4-0.5C41.8,79.5,42.6,79.6,43.3,79.6z" style="fill: rgb(209, 160, 124);"/></g><g id="__id264_slrh93vazf"><path d="M47.7,85.8c0,0.2,0.1,0.4,0.2,0.5c0.1,0.1,0.2,0,0.4,0c1-0.2,2-0.4,3.1-0.5c-0.5-1.2-0.8-2.5-0.9-3.8 c-0.8,0.4-1.7,0.4-2.5,0.6c-0.8,0.1-0.5,1.1-0.4,1.7C47.6,84.7,47.6,85.2,47.7,85.8z" style="fill: rgb(209, 160, 124);"/></g><g id="__id265_slrh93vazf"><path d="M50.8,68c-0.4,3.5-0.6,8.6,0.5,15c-0.7,0.3-1.5,0.5-2.5,0.7c-1.2,0.2-2.3,0.3-3.1,0.3 c-0.3-1.7-0.5-3.5-0.6-5.4c0-0.8-0.1-1.5-0.1-2.2c0-0.7,0-1.3,0-1.9c0,0.3-0.1,0.5-0.1,0.8c-0.4,2-0.7,4-1.1,6.1c-0.9,0-2,0-3.2-0.1 c-0.8-0.1-1.5-0.2-2.2-0.3c0.8-4.6,1.7-8.3,2.4-10.9c0.6-2.4,1-3.5,1.4-5.8c0.4-2.4,0.8-5.2,0.1-8.6c-0.3-1.8-0.6-2-0.8-3.7 c-0.2-1.9,0.1-3.8,0.6-5.6c0.2-0.7,0.4-1.4,0.9-1.9c1.2-1.3,2.9-0.9,4.4-0.6c1.3,0.3,2.4-0.3,3.1,1.1c1.6,3.5,1.9,7.5,1.7,11.4 C51.8,63.1,51,65.9,50.8,68z" style="fill: rgb(115, 115, 115);"/></g><g id="__id266_slrh93vazf"><path d="M37.7,15.8c0.6-0.5,1.5-0.7,2.3-0.7c0.4,0,0.9,0,1.2,0.3c0.2,0.2,0.2,0.3,0.4,0.4c0.7,0.5,1.9-0.3,2.1,0 c0,0.1,0.1,0.2-0.2,0.5c0.5,0.1,0.7,0.2,0.8,0.3c0,0,0.1,0.1,0.2,0.2c0.1,0.1,0.2,0.1,0.3,0.1c0.2,0,0.4,0.1,0.7,0.4 c0.3,0.2,0.5,0.4,0.6,0.5c0.2,0.3,0,0.7-0.2,1.1s-0.5,0.6-0.6,1c-0.2,0.6,0.1,1.2,0.4,1.7c0.4,0.9,0.7,1.9,0.8,2.9 c0,0.3,0.1,0.6,0,0.8c-0.1,0.2-0.3,0.4-0.5,0.5c-0.7,0.4-1.6,0.2-2.3-0.2c-0.7-0.4-1.3-1-2.1-1.3c-0.4-0.2-0.8-0.3-1.2-0.6 c-0.3-0.2-0.5-0.6-0.7-1c-0.6-1.1-1.2-2.1-1.8-3.2c-0.5-0.8-1-1.5-0.9-2.5C37,16.7,37.3,16.1,37.7,15.8z" style="fill: rgb(209, 160, 124);"/></g><g id="__id267_slrh93vazf"><path d="M35.8,15.7c0.4-0.3,0.7-0.5,1.3-0.8c0.1-0.1,0.3-0.1,0.5-0.1c0.2,0,0.3,0.1,0.4,0.3c0.1,0.2-0.1,0.5-0.2,0.7 c-0.1,0.2-0.1,0.4-0.1,0.5c0,0.2,0.2,0.4,0.3,0.4c0.1,0,0.3,0,0.4,0.1c0.1,0.1,0.1,0.3,0,0.4c-0.1,0.1-0.1,0.2-0.1,0.4 c0,0.2,0.2,0.3,0.3,0.3c0.2,0,0.3,0,0.5,0c0.1,0,0.4,0,0.6,0.1c0,0.2,0,0.3,0,0.5c-0.1,0-0.5,0-0.8,0.2c-0.1,0.1-0.4,0.3-0.5,0.6 c-0.1,0.5,0.2,1,0.6,1.3c0.4,0.3,0.8,0.6,1.1,1c0.2,0.4,0.3,0.9,0.3,1.4c0,0.1,0,0.1,0,0.2c-0.1,0.1-0.2,0.1-0.4,0.1 c-0.5-0.1-1,0-1.6,0.1c-0.5,0.1-1,0.2-1.5,0.3c-0.7,0-1.3-0.4-1.4-0.5c-1.4-1-1.4-3.1-1.4-3.8c0-0.2,0-0.8,0.2-1.5 C34.5,17.7,34.8,16.6,35.8,15.7z" style="fill: rgb(53, 53, 53);"/></g><g id="__id268_slrh93vazf"><path d="M52.2,18.2c-0.3,0.3-0.7,0.5-0.9,0.8c-0.1,0.1-0.2,0.3-0.4,0.4c-0.2,0.1-0.4-0.1-0.6-0.3 c-0.7-0.7-1.3-1.5-1.7-2.4c-0.1-0.3-0.3-0.6-0.6-0.7c-0.1,0-0.3,0-0.4,0c-0.1,0-0.1,0.1-0.2,0.1l0,0c0,0-0.1,0-0.1,0.1 c-0.2,0.2-0.3,0.4-0.4,0.6c-0.2,0.3-0.4,0.7-0.8,0.7c-0.6,0-0.8-0.8-1.3-0.9c0-0.1,0-0.1,0-0.2c-0.1,0-0.2,0-0.2,0 c0-0.1,0-0.2-0.1-0.3c-0.1-0.1-0.2-0.2-0.2-0.3c-0.1,0-0.7,0.5-1,0.3c0,0-0.1-0.1-0.2-0.3C43,15.4,43,15.1,42.9,15 c-0.2-0.4-0.6-0.6-1-0.9c-0.9-0.6-1.4-1.8-1.2-2.9c0.1-0.9,0.7-1.6,1.2-2.2c0.4-0.4,0.8-1,1.4-1.1c0.7-0.1,1.5,0.1,2.1,0.4 c1.4,0.5,2.6,1.4,3.5,2.5c0.4,0.6,0.7,1.2,1.1,1.8c0.4,0.6,1,1.1,1.5,1.6c0.5,0.5,0.9,1.2,1.1,1.9C52.8,16.8,52.7,17.7,52.2,18.2z" style="fill: rgb(209, 160, 124);"/></g><g id="__id269_slrh93vazf"><path d="M51.6,12.1c1,1.1,2,2.2,2.8,3.5s1.4,2.6,1.6,4.1c0.1,1.1,0,2.2,0,3.3c0.1,4.1,2.1,7.8,4,11.4 c-3.2,0-6.4,0-9.6,0c0.7-3,1.1-6.2-0.2-9c-0.6-1.2-1.5-2.2-1.9-3.5c-0.6-1.7-0.3-3.6,0.3-5.3C48.9,16.2,51.7,12.1,51.6,12.1z" style="fill: rgb(234, 234, 234);"/></g><g id="__id270_slrh93vazf"><path d="M72.3,52.9c0.2,0.2,0.3,0.5,0.5,0.7c0.2,0.2,0.5,0.2,0.8,0.2c0.3,0,0.6,0,0.8,0.2c0.2,0.2,0.3,0.6,0,0.7 c-0.6-0.1-1.2-0.1-1.8-0.2c-0.2,0.7,0.2,1.3,0.6,1.9c0.4,0.5,0.9,1.1,1,1.8c0.1,0.4,0,0.8-0.1,1.2c-0.2,1.3-0.5,2.7-0.9,4 c-0.5-0.2-0.9-0.7-1-1.3s-0.1-1.1-0.1-1.7c0-1.3-0.4-2.5-1-3.7c-0.3-0.6-0.6-1.2-0.9-1.7c-0.2-0.4-0.8-1-0.7-1.5 C70,52.5,71.7,52.3,72.3,52.9z" style="fill: rgb(234, 234, 234);"/></g><g id="__id271_slrh93vazf"><path d="M47.5,16.7c0.1-0.3,0.1-0.6,0.2-0.8c0.3-0.5,0.9-0.8,1.4-1c0.1,0,0.2-0.1,0.3-0.1c0.1,0,0.2,0,0.3,0.1 c0.1,0.1,0.1,0.3,0,0.4c-0.1,0.1-0.2,0.2-0.3,0.4s-0.2,0.2-0.2,0.4c0,0.2,0.1,0.3,0.3,0.3c0.1,0,0.3-0.1,0.3-0.2 c0-0.1,0.1-0.2,0.1-0.3c0.1-0.1,0.2-0.1,0.3,0c0,0,0,0.1,0,0.1c0.1,0.4-0.1,0.9-0.3,1.2c-0.3,0.3-0.6,0.6-0.8,1 c-0.2,0.4-0.4,0.8-0.2,1.2c-0.3,0.1-0.7,0.3-1,0.4c-0.2,0.1-0.5,0.3-0.7,0.1c-0.1-0.2-0.1-0.6-0.1-0.9c0-0.3,0.1-0.7,0.1-1 C47.3,17.5,47.4,17.1,47.5,16.7z" style="fill: rgb(209, 160, 124);"/></g><g id="__id272_slrh93vazf"><path d="M51.1,49.6c0,0,0,0.1,0,0.1c0,0.1,0,0.2,0,0.3c-2,0.6-4,1-6.1,1.3c0,0,0-0.1-0.1-0.1c0-0.1-0.1-0.1-0.1-0.2 c-0.1-0.2-0.2-0.4-0.3-0.6c-0.2-0.3-0.3-0.7-0.4-1c0-0.3-0.1-0.5-0.2-0.8c-0.1-0.4-0.1-0.8-0.1-1.2c0-0.1,0-0.2,0-0.3 c0,0.1,0,0.1-0.1,0.2c0,0,0,0.1,0,0.1c0,0,0,0.1,0,0.1c-0.1,0.2-0.2,0.5-0.2,0.7c-0.3,0.8-0.6,1.6-0.9,2.4c-0.1,0.2-0.1,0.3-0.2,0.5 c0,0,0,0.1,0,0.1c-0.7-0.2-1.4-0.2-2-0.1c0-0.1,0-0.2,0-0.2c0-0.1,0-0.1,0-0.2c0.3-2.5,0.9-4.4,1.4-5.6c0.5-1.2,1.1-2.2,1.1-3.8 c0-1.3-0.5-2.1-0.9-3c-1.7-3.6-2-7.1-2-8.7c0-1.3,0.2-3.3,1.4-5.8c0.7,0,1.9,0,3.3,0.5c0.6,0.2,1,0.5,1.5,0.8c0,0,0.1,0.1,0.1,0.1 c0.1,0,0.2,0.1,0.2,0.2c0.7,0.5,1.9,1.3,3,2.7c0,0,0.4,0.5,0.8,1.2c0.5,1,0.9,4.1,1,8.6c0,0.1,0,0.2,0,0.3 C51.3,41.3,51.3,45.2,51.1,49.6z" style="fill: rgb(115, 115, 115);"/></g><g id="__id273_slrh93vazf"><path d="M43.6,83.1c0.1,0.7,0.3,1.5,0.7,2.1c0.4,0.6,1,1.2,1.7,1.5c0.4,0.2,0.8,0.3,1.2,0.4c0.4,0.1,0.8,0.4,1.1,0.7 c0.3,0.4,0.3,0.9,0.1,1.2c-0.3,0.4-0.9,0.4-1.4,0.4c-3.1,0-6.1-0.2-9.1-1c0-1.5,0.5-3,1.2-4.3c0-0.1,0.1-0.1,0.2-0.2 c0.1,0,0.2,0.1,0.3,0.2c0.5,0.6,1.2,0.4,1.8,0.1C42.1,84,42.9,83.6,43.6,83.1z" style="fill: rgb(234, 234, 234);"/></g><g id="__id274_slrh93vazf"><path d="M51.4,83c0.6,0.8,1.3,1.5,2.1,2.1c0.8,0.6,1.8,1,2.8,1c0.4,0,0.8,0,1.2,0.1c0.2,0.1,0.8,0.3,1,0.9 c0,0,0.2,0.6-0.1,1c-0.4,0.6-1.5,0.5-2.2,0.5c-5.1-0.2-7.6-0.1-9.5-0.5c-0.1,0-0.3-0.1-0.4-0.2c-0.2-0.2-0.3-0.6-0.2-0.9 c0.1-1,0.5-2,1-2.8c-0.1,0.2,1,0.6,1.1,0.6c0.3,0.1,0.6,0,0.9-0.1C50,84.2,50.8,83.6,51.4,83z" style="fill: rgb(234, 234, 234);"/></g><g id="__id275_slrh93vazf"><path d="M49.2,67.8c-0.2,0.2-0.3,0.4-0.4,0.7c-0.1,0.4,0,0.8,0.2,1c1.3-0.6,2.5-1.3,3.8-1.9c0.3-0.2,0.6-0.3,0.8-0.6 c0.2-0.3,0.3-0.7,0.3-1.1c0.1-0.8,0.1-1.5,0.2-2.3c-0.4,0.1-0.9-0.1-1.3-0.2c-0.4-0.1-1-0.2-1.3,0.1c-0.3,0.3-0.4,0.9-0.5,1.3 C50.6,65.8,50,66.8,49.2,67.8z" style="fill: rgb(209, 160, 124);"/></g><g id="__id276_slrh93vazf"><path d="M55.9,65.1c0,0.7,0,1.4-0.1,2c0,0.2-0.1,0.4-0.2,0.6c-0.1,0.1-0.2,0.2-0.3,0.4c-0.3,0.3-0.3,0.8-0.3,1.3 c0,0.4,0.1,0.9,0,1.3c-0.3,0-0.6-0.1-0.9-0.1c0-0.7,0-1.5,0-2.2c-0.6-0.1-1.2,0.3-1.6,0.8c-0.4,0.4-0.8,1-1.3,1.3 c-0.7,0.3-1.4,0.3-2.1,0.2c-0.6-0.1-1.2-0.1-1.8-0.2c-0.3,0-0.6-0.1-0.6-0.4c0-0.3,0.3-0.4,0.5-0.6c0.7-0.3,1.3-0.6,2-0.8 c0.3-0.1,0.7-0.2,1-0.4c0.2-0.1,0.3-0.3,0.5-0.4c1-0.8,2.1-1.4,3.3-1.9C54.1,65.7,55.9,65.1,55.9,65.1z" style="fill: rgb(234, 234, 234);"/></g><g id="__id277_slrh93vazf"><path d="M69.4,53.2c-1.3,3.2-3.3,6.1-5.7,8.6c-1.8-1.6-3.7-3.1-5.7-4.4c-0.1,0-0.1-0.1-0.2-0.1c0,0,0,0-0.1,0 c-0.3,3-0.6,6-0.9,9.1c-3.1-0.5-6.1-0.9-9.2-1.4c1.4-3.4,2.8-6.9,3.3-10.5c0.7-4.2,0.3-8.5-0.1-12.7c-0.3-2.8,0.2-5.1,0.4-7.9 c2.8-0.5,5.7-0.4,8.6,0.1c0.6,0.9,0.4,2-0.1,2.9c-0.4,0.9-1,1.8-1.3,2.8c-0.3,1.1-0.1,2.2,0,3.3c0.3,1.8,0.5,3.5,0.8,5.3 c0.1,0.5,0.2,1,0.5,1.4c0.3,0.5,0.9,0.7,1.5,0.9C64,51.5,66.7,52.4,69.4,53.2z" style="fill: rgb(234, 234, 234);"/></g><g id="__id278_slrh93vazf"><path d="M38.9,26.5c0.1,0.6,0.4,1.1,0.8,1.5c0.3,0.2,0.4,0.2,0.5,0.2c0.1,0,0.2-0.2,0.3-0.3c0,0,0.3,0.1,0.5,0 c0.1-0.1,0.2-0.3,0.2-0.4c0.3,0,0.5-0.3,0.4-0.6c0.2-0.1,0.3-0.5,0.2-0.7c-0.1-0.3-0.3-0.5-0.5-0.7c0.3-0.3,0.2-0.8-0.1-1 c-0.3-0.3-0.7-0.3-1-0.2C39.2,24.5,38.8,25.6,38.9,26.5z" style="fill: rgb(209, 160, 124);"/></g><g id="__id279_slrh93vazf"><path d="M58.6,42c0.2,0.1,0.4,0,0.6,0c0.1,0.2-0.1,0.4-0.2,0.5c-0.2,0.1-0.4,0.2-0.5,0.3c-0.2,0.1-0.4,0.2-0.4,0.4 c-0.1,0.2,0,0.5,0.2,0.5c0,0.1-0.1,0.2-0.1,0.3c0.1,0.2,0.3,0.5,0.5,0.6c0.3,0.2,0.6,0.1,1,0c0.5-0.1,1-0.2,1.3-0.7 c0.2-0.3,0.2-0.7,0.2-1.1c0-0.4,0-0.8,0-1.2c0-0.2,0-0.3-0.1-0.5c-0.2-0.5-1.1-0.8-1.6-0.5C59.2,40.9,57.7,41.7,58.6,42z" style="fill: rgb(209, 160, 124);"/></g><g id="__id280_slrh93vazf"><path d="M58.8,40.3c0.4,0.1,0.8,0.4,1.1,0.7c0.2,0.2,0.5,0.4,0.7,0.6c0.1,0.1,0.2,0.1,0.2,0.2 c0.1,0.2-0.1,0.5-0.3,0.6c-0.2,0.1-0.5,0-0.8,0c-0.1,0.1-0.1,0.3,0,0.5s0.3,0.2,0.3,0.4c0.1,0.3,0,0.6-0.3,0.7 c-0.4,0.2-0.9,0.2-1.3,0.1c-0.4-0.2-0.7-0.5-1.1-0.8c-0.2-0.2-0.5-0.4-0.6-0.7C56.5,41.6,57.8,40.1,58.8,40.3z" style="fill: rgb(209, 160, 124);"/></g><g id="__id281_slrh93vazf"><path d="M51.5,37.7c2,1.6,3.6,3.7,5.2,5.7c1-1,1.8-2.2,2.5-3.4c-1.9-2.6-4.1-4.9-6.5-7c-0.5-0.4-1-0.9-1.4-1.4 c-0.4-0.6-0.6-1.4-0.9-2c-0.9-1.9-2.8-3.4-4.9-3.7c-0.2,0-0.7,3-0.8,3.3c-0.2,1.1-0.3,2.3-0.3,3.4c0,0.4-0.1,0.9,0.2,1.2 c0.2,0.2,0.6,0.3,0.8,0.5c1,0.5,1.9,1,2.9,1.5C49.5,36.2,50.5,36.9,51.5,37.7z" style="fill: rgb(115, 115, 115);"/></g><g id="__id282_slrh93vazf"><path d="M49.1,18.4c0.1,0.7,0.3,1.8,0.7,3c0.4,1.4,0.8,3,1,2.9c0.2,0,0.2-0.8,0.4-2.7c0.1-1.2,0.3-2.1,0.3-2.7 c1.2,0.2,2.5,0.3,3.8,0.3c-0.4,2.7-1.2,5.3-2.3,7.8c-0.3,0.7-0.7,1.5-1.5,1.9c-0.9,0.4-2-0.1-2.9-0.5c-0.6-0.3-1.2-0.6-1.6-1.1 c-0.4-0.5-0.5-1.1-0.6-1.7c-0.3-1.2-0.5-2.1-0.6-2.7c-0.1-0.6-0.3-1.4-0.5-2.4C46.7,19.7,47.9,19,49.1,18.4z" style="fill: rgb(234, 234, 234);"/></g><path d="M50.3,6.5c0.7-0.1,1.4,0,1.9,0.5c0.7,0.6,0.9,1.5,0.8,2.4c-0.1,0.9-0.4,1.7-0.6,2.6c-0.2,1.2,0,2.5,0.5,3.6 c-0.7,0.1-1.3-0.4-1.6-1c-0.3-0.6-0.2-1.3-0.1-2c0.1-0.7,0.2-1.4,0-2c-0.1-0.6-0.4-1.1-0.8-1.5c-0.5-0.5-1.1-0.5-1.7-0.8 C47.1,7.5,49.6,6.6,50.3,6.5z" style="fill: none;"/><g id="__id283_slrh93vazf"><path d="M57.1,18.2c-1.9-1.3-3.4-3.1-4.3-5.1c0,0,0-0.1,0-0.1c0.2-1.4-0.1-3-1.1-4c-0.1-0.1-0.2-0.1-0.3-0.2 c-0.1-0.1-0.1-0.3-0.2-0.4c-0.5-0.8-1.4-1.4-2.3-1.5c-0.5-0.1-1.3,0-1.8,0.3c-0.7-0.4-1.5-0.6-2.2-0.6c-0.6,0-2.3-0.1-3.5,1.1 c-0.8,0.9-0.9,1.9-1,2.5c-0.1,0.7,0.1,0.9,0.1,1c0.3,0.4,0.9,0.1,1.9,0.5c0.5,0.2,0.5,0.4,0.9,0.5c0.4,0.1,0.9,0,1.3-0.1 c0.4-0.1,1-0.1,1.2,0.3c0.2-0.3,0.1-0.7,0-1.1c0-0.4,0.1-0.9,0.4-0.9c0.2-0.1,0.5,0.1,0.7,0.3c0.4,0.4,0.7,0.9,1.2,1.2 c0.5,0.4,1.1,0.7,1.6,1.1c0.5,0.4,0.9,0.8,1.3,1.3c0,0.1,0.1,0.3,0.1,0.4c0,0,0,0.1,0,0.1c-0.2,0.7-0.4,1.4-0.5,2.1 c-0.3,2.4,0.6,4.8,2.3,6.5c-1.1-2.1-1.8-4.5-1.3-6.8c0-0.2,0.1-0.4,0.2-0.6c0.1,0.2,0.3,0.4,0.4,0.5c0.6,1.6,0.9,3.3,1.3,4.9 c0.1-1.3,0.1-2.6-0.1-3.9C54.7,18.1,55.9,18.4,57.1,18.2z M49.9,10.9c-0.6-0.8-1-1.7-1.5-2.5c0,0,0,0,0,0c0.7,0.4,1.3,1,1.7,1.7 c0.3,0.5,0.4,1,0.5,1.6C50.3,11.4,50.1,11.1,49.9,10.9z" style="fill: rgb(53, 53, 53);"/></g><g id="__id284_slrh93vazf"><path d="M49.5,15.7C49.5,15.7,49.5,15.7,49.5,15.7c0-0.2,0.2-0.3,0.2-0.4c0.1-0.2,0.1-0.4-0.1-0.5 c-0.3-0.1-0.6,0-0.9,0.2c-0.3,0.2-0.5,0.4-0.8,0.6c-0.1,0.1-0.2,0.3-0.3,0.4c0,0-0.1,0.1-0.1,0.1c-0.1,0-0.1,0.1-0.2,0.1 c0,0,0.1-0.1,0.1-0.1c0-0.1,0.1-0.1,0.2-0.2c0.1-0.2,0.3-0.3,0.4-0.5c0.3-0.2,0.6-0.4,0.9-0.5c0.2-0.1,0.7-0.2,0.8,0.1 C50.1,15.2,49.7,15.5,49.5,15.7z" style="fill: rgb(53, 53, 53);"/></g><g id="__id285_slrh93vazf"><path d="M46.6,66.4c-0.5,1.8-1,3.5-1.3,5.3c-0.2,1.6-0.2,3.1-0.3,4.7c0-0.7,0-1.3,0-1.9c0,0.3-0.1,0.5-0.1,0.8 c0-1.2,0.1-2.4,0.3-3.5C45.4,69.9,45.8,68,46.6,66.4C46.6,66.3,46.7,66.3,46.6,66.4z" style="fill: rgb(53, 53, 53);"/></g><g id="__id286_slrh93vazf"><path d="M51.1,49.9C51,49.9,51,49.9,51.1,49.9c-1.1,0.5-2.2,0.8-3.3,1c-1,0.2-2,0.2-3,0.5c-0.1,0-0.2,0.1-0.3,0.1 c-0.1,0-0.1,0-0.1-0.1c-0.1-0.6-0.1-1.2-0.3-1.8c0-0.3-0.1-0.5-0.2-0.8c-0.1-0.3-0.1-0.6-0.2-0.9c-0.2,0.7-0.4,1.4-0.6,2 c-0.1,0.3-0.2,1-0.6,1.2c0,0-0.1,0-0.2,0.1c-0.2,0-0.5,0-0.6,0c-0.4,0-0.8-0.1-1.2-0.1c-0.1,0-0.2,0-0.3,0c0-0.1,0-0.1,0-0.2 c0.5,0.1,1.2,0.2,1.8,0.2c0.2,0,0.3-0.1,0.5-0.3c0.3-0.4,0.4-1,0.6-1.4c0.1-0.3,0.2-0.7,0.3-1c0.1-0.3,0.2-0.5,0.2-0.8 c0,0,0-0.1,0.1-0.1c0,0,0.1,0,0.1,0.1c0,0,0,0,0,0c0.3,1,0.5,2,0.7,3c0,0.2,0.1,0.4,0.1,0.7c0,0,0.1,0,0.2-0.1 c0.9-0.3,1.9-0.3,2.8-0.5C48.7,50.5,49.8,50.1,51.1,49.9c-0.1-0.1-0.1-0.1,0-0.1C51.1,49.8,51.1,49.9,51.1,49.9z" style="fill: rgb(53, 53, 53);"/></g><g id="__id287_slrh93vazf"><path d="M45.6,20.7c0.1,1.6,0.4,3.2,0.8,4.8c0.2,0.7,0.5,1.4,1,1.9c0.6,0.6,1.4,0.9,2.1,1.2c1,0.3,2.3,0.4,2.8-0.7 c0.5-1,1-2,1.5-3.1c0.7-1.6,1.4-3.2,1.7-4.9c0-0.1-0.1-0.1-0.1,0c-0.4,1.4-0.8,2.8-1.4,4.1c-0.4,0.9-0.8,1.8-1.2,2.6 c-0.2,0.5-0.4,1-0.7,1.5c-0.4,0.6-1.2,0.7-1.9,0.5c-0.8-0.1-1.6-0.5-2.3-0.9c-0.8-0.5-1.2-1.2-1.4-2.1C46.2,24,45.9,22.4,45.6,20.7 C45.7,20.7,45.6,20.7,45.6,20.7L45.6,20.7z" style="fill: rgb(53, 53, 53);"/></g><g id="__id288_slrh93vazf"><path d="M49,19.1c0.4,1.7,1,3.4,1.6,5.1c0,0.1,0.1,0.1,0.1,0c0.3-1,0.5-2,0.8-3c0.2-1,0.5-2,0.6-3 c0-0.1-0.1-0.1-0.1,0c-0.3,1-0.4,2-0.7,3c-0.2,1-0.5,2-0.8,3c0,0,0.1,0,0.1,0C50.1,22.4,49.6,20.7,49,19.1C49.1,19,49,19,49,19.1 L49,19.1z" style="fill: rgb(53, 53, 53);"/></g><g id="__id289_slrh93vazf"><path d="M45.8,20.5c0.6-0.3,1.2-0.5,1.8-0.8c0.6-0.2,1.2-0.4,1.7-0.7c0.1,0,0-0.1,0-0.1c-0.6,0.1-1.2,0.4-1.8,0.6 C46.9,19.8,46.3,20.1,45.8,20.5C45.7,20.4,45.7,20.5,45.8,20.5L45.8,20.5z" style="fill: rgb(53, 53, 53);"/></g><g id="__id290_slrh93vazf"><path d="M51.3,37.8V38c-1.9-1.8-4.1-3.2-6.5-4.2c0,0-0.1,0-0.1-0.1c-0.1-2.9,0.3-6,1.5-8.7c0,0,0.1,0.1,0.1,0.1 c-0.5,1.3-0.9,2.6-1.1,4c-0.1,0.9-0.3,1.8-0.3,2.7c0,0.4,0,0.8,0,1.2c0,0.5,0.1,0.6,0.4,0.8c1.3,0.7,2.7,1.3,3.9,2.2 C49.9,36.6,50.6,37.2,51.3,37.8L51.3,37.8z" style="fill: rgb(53, 53, 53);"/></g><g id="__id291_slrh93vazf"><path d="M58.2,53.8c0,1.2-0.1,2.5-0.2,3.7c-0.1,0-0.1-0.1-0.2-0.1c0.1-1.2,0.1-2.5,0.1-3.7c0-2.9-0.1-5.8-0.2-8.7 c0-0.1,0.2-0.1,0.2,0C58.3,47.8,58.3,50.8,58.2,53.8z" style="fill: rgb(53, 53, 53);"/></g><g id="__id292_slrh93vazf"><path d="M32.1,18.8c-0.8,2.6,0.3,5.7,2.9,6.8c0.1,0,0.1-0.1,0.1-0.1c-1-0.6-1.9-1.5-2.5-2.6 c-0.6-1.3-0.7-2.7-0.3-4.1C32.3,18.7,32.2,18.7,32.1,18.8L32.1,18.8z" style="fill: rgb(53, 53, 53);"/></g><g id="__id293_slrh93vazf"><path d="M39.6,7.7c0.6-1,1.5-1.8,2.5-2.4c0.5-0.3,1-0.5,1.5-0.7c0.5-0.2,1.1-0.3,1.6-0.4c0.1,0,0-0.1,0-0.1 c-1.1,0-2.3,0.5-3.3,1.1c-1,0.6-1.8,1.4-2.5,2.4C39.5,7.8,39.6,7.8,39.6,7.7L39.6,7.7z" style="fill: rgb(53, 53, 53);"/></g><g id="__id294_slrh93vazf"><path d="M57.5,25.4c0.8,1.8,1.5,3.6,2.4,5.3c0,0.1,0.1,0,0.1,0c-0.7-1.8-1.6-3.6-2.4-5.3 C57.6,25.2,57.5,25.3,57.5,25.4L57.5,25.4z" style="fill: rgb(53, 53, 53);"/></g><g id="__id295_slrh93vazf"><path d="M75.7,58.8c-0.2,0.9-0.4,1.9-0.6,2.8c-0.3,0.9-0.6,1.8-0.9,2.7c0,0.1,0.1,0.1,0.1,0.1 c0.8-1.7,1.3-3.6,1.5-5.5C75.9,58.7,75.7,58.7,75.7,58.8L75.7,58.8z" style="fill: rgb(53, 53, 53);"/></g><g id="__id296_slrh93vazf"><path d="M64.9,63.7c0.8-1.6,1.9-2.9,3.2-4.2c0,0,0-0.1-0.1-0.1C66.7,60.6,65.6,62.1,64.9,63.7 C64.8,63.7,64.9,63.7,64.9,63.7L64.9,63.7z" style="fill: rgb(53, 53, 53);"/></g><g id="__id297_slrh93vazf"><path d="M40,55.4c0.7,3.1,0.7,6.2,0.2,9.3c0,0.1,0.1,0.1,0.1,0c0.7-3.1,0.5-6.4-0.3-9.4C40.1,55.3,40,55.4,40,55.4 L40,55.4z" style="fill: rgb(53, 53, 53);"/></g><g id="__id298_slrh93vazf"><path d="M53.3,89.9c1.8,0.2,3.6,0.2,5.3-0.2c0.1,0,0.1-0.1,0-0.1c-1.8,0.2-3.5,0.3-5.3,0.1 C53.2,89.7,53.2,89.9,53.3,89.9L53.3,89.9z" style="fill: rgb(53, 53, 53);"/></g></svg>