<svg xmlns="http://www.w3.org/2000/svg" xmlns:xlink="http://www.w3.org/1999/xlink" preserveAspectRatio="xMidYMid meet" version="1.0" viewBox="168.3 623.1 2800.2 1518.7" zoomAndPan="magnify" style="fill: rgb(244, 72, 211);" original_string_length="1934"><g id="__id183_spqep60s6"><path d="M2306.1,1531.7c-3.7,3.6-135.2,132.9-155.5,141c-83.8,33.3-103.8,133.1-418.1,199.8c-49.2,127.1-123.2,211.5-303.9,229.2 c-150.9,14.8-335-57.9-426.6-173.6c-5.1-6.4-10.6-12.7-16.9-20c-328.2,80.1-613.1-38.3-784.5-230.1c-24-26.9-30.2-55.3-31-84.1 c-1.3-44.8,87.3,171.1,370.2,266.9c188.1,63.7,372.9,40.2,423.7,8.6c-63-241.4,226.9-88.4,95.8,3.2c-10,7-21,13.2-33.5,21 c87.9,147.1,390,248.2,571.2,105c36.5-28.9,90.5-96.6,75.2-118.5c-81.8,0.1-158.3,3.6-235.8-35.1c-96.5-48.2-96.1-162.4,4.5-158.5 c62.3,2.4,30.7,16.8,45.7-24c22.5-61.1,121.6-57.7,190.3-0.3c54.3,45.4,60.6,103.3,63.8,167.1c95.7-2.3,254.8-81,347.1-171.4 c-16.8-37.7-90.2-142.2-176.9-317.5c-9.7-19.6,0.8-14.6-41.1-29.6c-151.8-54.4-321.8-154.8-360.4-182.8 c-62.2-45.2-109.5-37.3,1344.4-470.7c114.7-34.2-58.4,141.7-144.5,651.7c-35,207-36.8,354.6-38.5,365.7 c-9.4,61.3-75.9,3.2-201.9-62.2C2415.8,1585.1,2361.8,1559.3,2306.1,1531.7z M2587.4,903.7c-9.8-5.2-14.8-3.6-15,5 c-3.9-0.2-9-1.6-11.5-0.3c-619.3,411.6-601,397.7-617.4,413.4c112.6,200.5,111.1,199.9,121.3,198.2c-27-174-38.9-126.9,7.5-167.6 c317.5-279.1,498-441.5,516.4-453.3L2587.4,903.7z M2624.2,1651.6c9.6-102.4,15.4-390.6,136.2-751c36.2-107.9,38.7-104.9,25.5-111.1 c-676.5,593.1-642,561.8-676.7,595.1C2193.5,1443.7,2279.5,1474.3,2624.2,1651.6z M1908,1287.4c18.9-9.1,1.3,1.2,471.8-313 C2713,751.8,2710.5,759.9,2706,745.6c-1149.1,365.7-1137.3,359.3-1146.1,370.1C1669.6,1184.8,1786.4,1241.2,1908,1287.4z M2101.1,1431.2c-2.3,11.6-4.9-0.2,30.3,172.7c1,5,5.4,10.2,9.6,17.6c26.5-20.7,100.4-83.1,107.9-113.9 C2205.8,1480.9,2124.2,1438.7,2101.1,1431.2z M1037.9,1786.8c-31.2-29.4-59.8,22.3-30.9,62.3 C1012,1855.9,1074.7,1821.5,1037.9,1786.8z" style="fill: inherit;"/></g></svg>